<?xml version="1.0" standalone="no"?>
<!DOCTYPE svg PUBLIC "-//W3C//DTD SVG 20010904//EN"
 "http://www.w3.org/TR/2001/REC-SVG-20010904/DTD/svg10.dtd">
<svg version="1.0" xmlns="http://www.w3.org/2000/svg"
 width="700.000000pt" height="700.000000pt" viewBox="0 0 700.000000 700.000000"
 preserveAspectRatio="xMidYMid meet">
<metadata>
Created by potrace 1.14, written by Peter Selinger 2001-2017
</metadata>
<g transform="translate(0.000000,700.000000) scale(0.100000,-0.100000)"
fill="#000000" stroke="none">
<path d="M685 6740 c-5 -9 -31 -121 -63 -275 -9 -40 -69 -318 -87 -400 -3 -11
-8 -36 -11 -55 -3 -19 -9 -48 -14 -65 -4 -16 -13 -55 -19 -85 -6 -30 -22 -104
-36 -165 -31 -141 -102 -472 -109 -508 -2 -15 -7 -35 -10 -45 -3 -9 -7 -28
-10 -42 -2 -14 -23 -110 -46 -215 -23 -104 -43 -199 -46 -210 -2 -11 -32 -149
-66 -308 -70 -326 -73 -288 30 -342 31 -16 153 -83 271 -147 l215 -117 57 53
c284 264 641 461 994 550 104 26 239 52 335 63 83 10 424 10 510 1 518 -58
997 -284 1371 -646 45 -43 96 -83 117 -90 20 -8 226 -70 457 -139 231 -68 564
-167 740 -220 345 -102 425 -126 668 -198 87 -26 174 -53 192 -61 l34 -14 0
-202 c0 -112 0 -209 0 -216 1 -10 73 -12 344 -10 l342 3 0 473 1 473 -41 11
c-22 6 -80 24 -130 39 -49 15 -106 32 -125 37 -19 6 -150 45 -290 87 -140 42
-264 78 -275 80 -11 3 -31 9 -45 14 -14 5 -82 26 -152 47 l-128 37 0 246 0
246 46 50 c26 28 99 106 163 174 64 69 129 138 145 155 16 17 49 52 74 78 l45
47 -40 38 c-64 61 -275 259 -308 288 -16 15 -58 54 -92 86 l-61 59 -29 -28
c-26 -27 -209 -222 -283 -302 -18 -19 -80 -86 -139 -149 -58 -63 -129 -139
-158 -170 l-51 -55 0 -274 c0 -150 -2 -275 -4 -278 -3 -2 -29 3 -59 12 -30 9
-88 27 -129 39 -92 28 -222 67 -315 94 -51 15 -82 32 -115 62 -303 276 -703
508 -1096 633 -112 36 -328 88 -419 102 -54 8 -102 15 -125 19 -101 19 -520
26 -665 11 -70 -7 -292 -43 -380 -61 -149 -31 -400 -114 -558 -186 -62 -28
-118 -53 -125 -56 -15 -6 -13 19 6 92 6 22 13 54 16 70 5 33 45 218 126 585
58 267 55 248 76 355 8 44 20 95 25 112 l11 33 893 0 893 0 6 -28 c4 -15 8
-36 10 -47 3 -18 46 -217 93 -430 8 -38 16 -78 18 -88 8 -39 17 -57 24 -52 7
4 380 86 461 101 23 5 121 26 178 39 16 4 22 11 18 23 -3 9 -7 28 -10 42 -5
29 -22 106 -29 135 -3 11 -13 56 -22 100 -10 44 -21 96 -25 115 -10 46 -30
139 -36 170 -3 14 -10 45 -15 70 -13 56 -18 78 -24 110 -5 27 -21 100 -55 250
-11 52 -24 112 -27 133 -3 20 -8 38 -12 38 -21 6 -2893 4 -2896 -1z"/>
<path d="M2228 3975 c-2 -1 -40 -5 -85 -9 -45 -3 -88 -8 -95 -10 -7 -3 -33 -7
-58 -10 -59 -8 -214 -50 -308 -85 -318 -118 -572 -304 -817 -596 -93 -111
-227 -352 -283 -508 -33 -91 -75 -249 -87 -327 -4 -25 -10 -54 -12 -65 -13
-49 -10 -424 3 -512 32 -206 108 -441 198 -608 42 -77 128 -213 164 -257 275
-341 571 -541 987 -668 119 -36 312 -62 475 -64 96 -1 153 2 295 19 59 7 194
38 285 66 199 61 444 191 606 324 122 99 273 263 366 395 145 208 274 525 304
748 3 26 10 70 14 97 9 55 6 409 -4 465 -59 330 -148 558 -309 793 -232 339
-575 598 -961 722 -103 34 -153 47 -227 59 -19 3 -43 7 -54 10 -66 13 -386 31
-397 21z m292 -701 c317 -60 565 -212 748 -457 182 -246 258 -521 228 -826 -4
-41 -9 -77 -11 -80 -2 -4 -6 -24 -9 -46 -4 -22 -20 -80 -37 -130 -82 -240
-242 -449 -456 -594 -147 -99 -324 -166 -503 -190 -68 -9 -284 -7 -335 4 -131
27 -195 46 -262 76 -24 10 -45 19 -47 19 -12 0 -158 87 -206 123 -107 80 -223
206 -294 320 -438 704 -40 1613 779 1776 110 22 300 24 405 5z"/>
<path d="M5610 2444 c-230 -42 -425 -141 -589 -302 -168 -166 -266 -350 -317
-597 -11 -54 -13 -299 -3 -350 5 -27 12 -63 15 -80 18 -108 107 -304 188 -411
256 -342 676 -507 1091 -429 338 63 628 282 783 592 30 59 95 233 87 233 -2 0
0 13 5 29 22 77 29 262 15 371 -33 248 -151 479 -336 654 -159 152 -338 243
-574 291 -62 13 -291 12 -365 -1z m302 -691 c73 -25 121 -55 173 -107 107
-107 146 -263 102 -407 -80 -262 -373 -374 -612 -234 -257 150 -261 536 -9
699 98 63 244 84 346 49z"/>
</g>
</svg>
