<?xml version="1.0" encoding="UTF-8" standalone="no"?><!DOCTYPE svg PUBLIC "-//W3C//DTD SVG 1.1//EN" "http://www.w3.org/Graphics/SVG/1.1/DTD/svg11.dtd"><svg width="100%" height="100%" viewBox="0 0 320 320" version="1.1" xmlns="http://www.w3.org/2000/svg" xmlns:xlink="http://www.w3.org/1999/xlink" xml:space="preserve" xmlns:serif="http://www.serif.com/" style="fill-rule:evenodd;clip-rule:evenodd;stroke-linejoin:round;stroke-miterlimit:2;"><rect id="Artboard1" x="0" y="0" width="320" height="320" style="fill:none;"/><path d="M264.757,207.57c27.823,0 50.411,22.589 50.411,50.412c0,27.822 -22.588,50.411 -50.411,50.411c-27.822,-0 -50.411,-22.589 -50.411,-50.411c0,-27.823 22.589,-50.412 50.411,-50.412Zm0,31.426c-10.478,-0 -18.985,8.507 -18.985,18.986c-0,10.478 8.507,18.985 18.985,18.985c10.479,0 18.986,-8.507 18.986,-18.985c0,-10.479 -8.507,-18.986 -18.986,-18.986Z" style="fill:#2ba3e8;"/><path d="M106.491,138.174c46.973,-0 85.109,38.136 85.109,85.109c0,46.973 -38.136,85.11 -85.109,85.11c-46.973,-0 -85.109,-38.137 -85.109,-85.11c-0,-46.973 38.136,-85.109 85.109,-85.109Zm0,31.425c-29.629,0 -53.684,24.055 -53.684,53.684c0,29.629 24.055,53.684 53.684,53.684c29.629,0 53.684,-24.055 53.684,-53.684c0,-29.629 -24.055,-53.684 -53.684,-53.684Z" style="fill:#2ba3e8;"/><path d="M175.492,65.846l-30.717,6.637l-3.318,-15.359c-0,0 -3.045,-14.091 -3.045,-14.091c-0,-0 -81.848,-0 -81.848,-0c-0,-0 -12.394,57.362 -12.394,57.362c50.547,-25.622 113.644,-18.079 156.799,22.627l111.977,33.333l0,43.33l-31.425,0l-0,-15.713l-0,-4.183l-97.025,-28.883l-2.814,-2.813c-41.499,-41.499 -108.883,-41.499 -150.382,-0l-26.468,-14.429l26.371,-122.057l132.57,0l11.719,54.239Z" style="fill:#2ba3e8;"/><path d="M258.767,159.445l-31.425,-0l0,-54.207l29.996,-32.126l22.969,21.447l-10.723,11.485l-10.817,11.584l0,41.817Z" style="fill:#2ba3e8;"/></svg>